<?xml version="1.0" standalone="no"?>
<!DOCTYPE svg PUBLIC "-//W3C//DTD SVG 20010904//EN"
 "http://www.w3.org/TR/2001/REC-SVG-20010904/DTD/svg10.dtd">
<svg version="1.0" xmlns="http://www.w3.org/2000/svg"
 width="1000.000000pt" height="632.000000pt" viewBox="0 0 1000.000000 632.000000"
 preserveAspectRatio="xMidYMid meet">

<g transform="translate(0.000000,632.000000) scale(0.100000,-0.100000)"
fill="#000000" stroke="none">
<path d="M4460 6309 c-927 -67 -1809 -455 -2443 -1075 -484 -474 -753 -1000
-854 -1669 -25 -169 -25 -710 0 -900 33 -248 72 -425 139 -635 43 -136 134
-358 142 -348 3 3 100 191 261 503 48 94 120 233 160 310 40 77 107 208 150
290 43 83 108 209 145 280 37 72 109 211 160 310 51 99 123 239 160 310 37 72
114 220 170 330 57 110 124 241 150 290 26 50 80 154 120 233 41 78 77 139 80
135 4 -5 68 -165 143 -358 206 -528 439 -1127 522 -1340 41 -104 79 -203 85
-219 11 -31 12 -30 590 768 102 140 188 255 192 255 3 1 273 -305 599 -679
326 -374 596 -677 600 -673 4 5 80 170 170 368 89 198 163 361 165 363 1 2 89
-68 195 -155 193 -157 559 -456 1694 -1382 324 -265 593 -481 597 -481 4 0 21
30 39 68 119 256 196 541 246 902 25 188 25 651 0 825 -120 818 -507 1512
-1217 2180 -628 591 -1293 951 -2060 1114 -358 77 -752 105 -1100 80z m1200
-899 c0 -11 -7 -20 -15 -20 -8 0 -15 9 -15 20 0 11 7 20 15 20 8 0 15 -9 15
-20z m-1203 -16 c3 -8 -2 -23 -11 -32 -14 -15 -18 -15 -31 -1 -9 9 -13 23 -9
32 8 21 43 22 51 1z m1683 -266 l0 -183 178 178 c97 97 181 177 185 177 4 0 7
-164 7 -365 0 -201 -3 -365 -7 -365 -4 0 -88 80 -185 177 l-178 178 0 -184 0
-184 -54 6 c-119 12 -234 98 -290 217 -28 58 -31 75 -31 155 0 96 16 147 72
228 53 76 179 146 266 147 l37 0 0 -182z m-3338 82 c19 -17 19 -20 5 -20 -9 0
-17 -8 -17 -17 0 -14 -3 -13 -20 5 -17 18 -19 25 -8 37 17 18 15 18 40 -5z
m3995 -675 c7 -20 -2 -29 -21 -22 -9 4 -13 13 -10 22 8 19 23 19 31 0z m-3099
-103 c-4 -22 -46 -28 -54 -8 -4 9 -1 23 6 31 16 19 53 1 48 -23z m1852 -162
c0 -11 -6 -20 -14 -20 -18 0 -29 16 -21 30 11 18 35 11 35 -10z m-3863 -405
c7 -20 -2 -29 -21 -22 -9 4 -13 13 -10 22 8 19 23 19 31 0z m6236 -721 c9 -10
-4 -34 -19 -34 -8 0 -14 9 -14 20 0 19 19 27 33 14z m-153 -709 c0 -8 8 -16
18 -16 16 -1 16 -2 0 -6 -10 -2 -18 -11 -18 -19 0 -8 -4 -14 -10 -14 -5 0 -10
7 -10 15 0 8 -6 15 -12 16 -10 0 -10 2 0 6 6 2 12 11 12 19 0 8 5 14 10 14 6
0 10 -7 10 -15z"/>
<path d="M2464 2028 c-157 -184 -298 -390 -363 -532 -34 -74 -77 -211 -97
-308 -10 -49 -22 -88 -26 -88 -5 0 -26 -12 -48 -26 -22 -15 -42 -25 -43 -23
-2 2 -29 56 -62 119 -32 63 -92 178 -132 255 -40 77 -94 182 -121 233 -26 50
-49 87 -51 81 -5 -15 18 -225 29 -266 5 -18 5 -33 2 -33 -4 1 -71 84 -149 186
-161 210 -156 209 -128 20 49 -326 212 -576 453 -693 51 -25 90 -49 85 -54 -4
-4 -136 -15 -293 -23 -456 -25 -959 -66 -1125 -91 -258 -39 -373 -67 -390 -95
-51 -83 658 -277 1535 -419 1075 -174 2310 -271 3458 -271 1574 0 3347 188
4475 474 304 78 468 137 512 186 l20 22 -23 18 c-12 10 -62 28 -110 39 -335
77 -1114 135 -2439 180 -122 4 -225 10 -229 13 -3 4 98 127 225 275 183 213
226 269 210 271 -10 2 -19 5 -19 8 0 2 29 41 65 87 60 75 63 82 42 86 -35 5
-126 -19 -192 -50 -131 -63 -240 -178 -315 -334 -41 -84 -90 -254 -90 -311 0
-30 -3 -34 -27 -34 -30 0 -19 -18 -213 355 -40 77 -74 141 -75 143 -5 6 7
-134 15 -170 4 -21 6 -38 5 -38 -2 0 -47 56 -101 125 -53 69 -99 123 -102 121
-9 -10 19 -169 42 -240 33 -96 82 -179 148 -245 l53 -54 -85 7 c-47 3 -421 9
-832 13 l-747 6 -4 26 c-2 14 -3 9 -2 -11 l3 -38 -289 0 c-213 0 -289 3 -289
12 0 11 -370 8 -1001 -9 l-246 -6 -6 42 c-3 24 -15 53 -27 66 -47 50 -222 107
-437 141 l-112 18 -11 50 c-16 81 -30 233 -30 339 0 53 -4 97 -8 97 -4 0 -23
-13 -42 -30 -45 -38 -56 -37 -64 3 -21 99 -66 351 -72 405 -3 34 -10 65 -15
67 -4 3 -47 -41 -95 -97z m4783 -1202 c18 -27 32 -54 30 -60 -10 -31 -211 -10
-239 25 -24 29 -22 49 5 49 12 1 47 9 77 20 30 11 64 19 74 17 11 -1 34 -24
53 -51z m-5866 -162 c19 -37 1 -44 -118 -44 -94 0 -103 2 -117 22 -21 29 -20
48 1 48 9 0 36 9 60 21 80 39 95 40 129 7 17 -16 37 -41 45 -54z m4550 4 c52
-61 63 -83 46 -96 -16 -13 -214 -24 -257 -14 -23 5 -40 18 -53 40 -21 36 -16
52 17 52 13 0 45 12 72 26 104 56 120 56 175 -8z m2620 0 c101 -117 94 -128
-89 -136 -190 -7 -218 2 -237 79 -6 24 -4 27 34 33 23 3 71 22 107 41 41 22
80 35 103 35 32 0 43 -7 82 -52z"/>
<path d="M4882 1865 c-18 -36 -32 -69 -32 -73 1 -4 16 22 34 58 l34 64 40 -79
c23 -44 41 -77 42 -72 0 8 -78 167 -83 167 -1 0 -17 -29 -35 -65z"/>
<path d="M4827 1745 c-24 -50 -20 -58 4 -12 11 22 19 41 17 43 -3 2 -12 -12
-21 -31z"/>
<path d="M5001 1745 c0 -5 8 -26 19 -45 11 -19 19 -30 19 -25 0 6 -8 26 -19
45 -11 19 -19 31 -19 25z"/>
<path d="M4766 1604 c-15 -36 -25 -68 -23 -70 2 -2 16 26 30 63 15 37 25 68
23 70 -2 2 -16 -26 -30 -63z"/>
<path d="M5040 1659 c0 -4 11 -31 25 -60 14 -30 22 -43 19 -29 -7 26 -43 100
-44 89z"/>
<path d="M5096 1520 c3 -14 11 -32 16 -40 6 -10 7 -7 2 10 -3 14 -11 32 -16
40 -6 10 -7 7 -2 -10z"/>
<path d="M4726 1505 c-9 -26 -7 -32 5 -12 6 10 9 21 6 23 -2 3 -7 -2 -11 -11z"/>
<path d="M5131 1425 c1 -19 18 -51 18 -35 0 8 -4 22 -9 30 -5 8 -9 11 -9 5z"/>
<path d="M4686 1395 c-3 -9 -6 -22 -5 -28 0 -7 5 -1 10 12 5 13 8 26 5 28 -2
2 -6 -3 -10 -12z"/>
<path d="M4661 1304 c-7 -25 -10 -48 -8 -51 3 -2 10 17 16 43 7 25 10 48 8 51
-3 2 -10 -17 -16 -43z"/>
<path d="M4877 1261 c-45 -98 -83 -211 -92 -273 l-7 -48 136 0 136 0 0 33 c0
50 -36 169 -83 273 -23 51 -45 94 -48 94 -3 0 -22 -36 -42 -79z"/>
<path d="M5161 1324 c0 -11 3 -14 6 -6 3 7 2 16 -1 19 -3 4 -6 -2 -5 -13z"/>
<path d="M5182 1250 c0 -14 2 -19 5 -12 2 6 2 18 0 25 -3 6 -5 1 -5 -13z"/>
<path d="M4642 1220 c0 -14 2 -19 5 -12 2 6 2 18 0 25 -3 6 -5 1 -5 -13z"/>
<path d="M5191 1204 c0 -11 3 -14 6 -6 3 7 2 16 -1 19 -3 4 -6 -2 -5 -13z"/>
<path d="M4632 1170 c0 -14 2 -19 5 -12 2 6 2 18 0 25 -3 6 -5 1 -5 -13z"/>
<path d="M5203 1140 c0 -25 2 -35 4 -22 2 12 2 32 0 45 -2 12 -4 2 -4 -23z"/>
<path d="M4623 1060 c0 -41 2 -58 4 -37 2 20 2 54 0 75 -2 20 -4 3 -4 -38z"/>
</g>
</svg>
