<?xml version="1.0" standalone="no"?>
<!DOCTYPE svg PUBLIC "-//W3C//DTD SVG 20010904//EN"
 "http://www.w3.org/TR/2001/REC-SVG-20010904/DTD/svg10.dtd">
<svg version="1.0" xmlns="http://www.w3.org/2000/svg"
 width="1946.000000pt" height="378.000000pt" viewBox="0 0 1946.000000 378.000000"
 preserveAspectRatio="xMidYMid meet">

<g transform="translate(0.000000,378.000000) scale(0.100000,-0.100000)"
fill="#000000" stroke="none">
<path d="M1680 3769 c-248 -28 -506 -112 -719 -233 -1088 -621 -1290 -2094
-408 -2981 314 -315 718 -504 1169 -547 119 -11 129 -10 148 7 20 18 20 26 20
934 l0 916 898 -897 c503 -504 905 -898 915 -898 9 0 26 9 37 20 20 20 20 33
20 1800 0 1767 0 1780 -20 1800 -11 11 -28 20 -37 20 -10 0 -412 -394 -915
-898 l-898 -897 0 916 c0 875 -1 917 -18 932 -20 19 -67 20 -192 6z"/>
<path d="M11214 2871 c-131 -60 -138 -251 -11 -318 19 -10 55 -17 88 -17 132
-1 215 129 160 249 -22 48 -44 69 -94 90 -48 20 -93 19 -143 -4z"/>
<path d="M5746 2794 c-305 -66 -566 -287 -679 -574 -55 -140 -62 -183 -61
-370 0 -161 2 -182 27 -263 52 -170 133 -303 258 -423 90 -85 143 -123 251
-174 138 -66 219 -83 398 -84 178 -1 243 12 377 74 142 66 252 151 343 266 59
74 130 192 130 216 0 9 -41 25 -122 46 -68 18 -127 32 -133 32 -5 0 -23 -26
-40 -58 -67 -130 -239 -262 -386 -297 -92 -21 -249 -19 -343 5 -377 96 -587
521 -451 913 118 341 484 523 832 412 140 -44 282 -163 352 -295 24 -45 37
-60 49 -56 9 3 68 19 130 37 63 18 112 37 112 44 0 7 -14 39 -31 71 -108 204
-302 374 -509 446 -142 49 -358 63 -504 32z"/>
<path d="M7050 1850 l0 -940 140 0 140 0 0 240 0 240 148 163 c81 90 150 162
154 160 3 -1 149 -183 324 -403 l317 -400 169 0 c133 0 168 3 162 12 -4 7
-183 234 -397 504 -214 271 -389 496 -387 500 1 5 171 197 378 428 208 230
379 422 380 427 2 5 -69 9 -165 9 l-168 -1 -455 -510 -455 -511 -3 511 -2 511
-140 0 -140 0 0 -940z"/>
<path d="M9555 2778 c-3 -7 -4 -429 -3 -938 l3 -925 138 -3 137 -3 0 411 0
410 475 0 475 0 0 125 0 125 -475 0 -475 0 0 275 0 275 530 0 530 0 0 130 0
130 -665 0 c-523 0 -667 -3 -670 -12z"/>
<path d="M12380 2351 c-124 -17 -245 -80 -332 -174 l-48 -51 0 102 0 102 -135
0 -135 0 0 -710 0 -710 135 0 135 0 0 400 c0 430 3 465 52 568 97 206 348 288
551 179 68 -35 115 -89 154 -173 l28 -59 3 -457 3 -458 135 0 135 0 -3 498 -3
497 -26 72 c-48 131 -150 248 -268 308 -109 55 -263 81 -381 66z"/>
<path d="M13840 2349 c-264 -32 -457 -178 -499 -377 -6 -29 -11 -55 -11 -58 0
-2 59 -3 132 -2 l131 3 14 40 c37 107 172 174 350 175 131 0 232 -32 304 -97
53 -48 68 -84 76 -182 l6 -79 -299 -4 c-327 -5 -389 -14 -511 -69 -78 -34
-165 -115 -198 -183 -58 -120 -55 -282 8 -399 65 -124 222 -207 419 -223 211
-17 371 46 516 200 l62 67 0 -126 0 -125 125 0 126 0 -3 543 -3 542 -27 59
c-38 81 -133 171 -228 218 -134 66 -329 97 -490 77z m496 -801 c-3 -13 -8 -41
-11 -62 -16 -98 -102 -216 -207 -284 -91 -59 -175 -84 -280 -85 -78 0 -93 3
-153 32 -78 39 -113 84 -122 158 -10 89 28 159 112 209 74 43 147 52 418 53
l247 1 -4 -22z"/>
<path d="M15525 2349 c-130 -20 -230 -73 -322 -172 l-53 -56 0 105 0 104 -135
0 -135 0 0 -710 0 -710 135 0 135 0 0 398 c0 435 4 471 59 580 78 154 245 240
414 213 109 -18 193 -68 247 -146 65 -95 64 -86 70 -585 l5 -455 133 -3 133
-3 -3 503 -3 503 -27 69 c-54 140 -147 240 -283 306 -120 57 -249 78 -370 59z"/>
<path d="M17062 2350 c-230 -32 -445 -185 -545 -390 -63 -128 -81 -200 -81
-335 0 -133 25 -231 87 -349 76 -144 230 -282 375 -336 201 -76 430 -60 619
45 99 55 217 178 271 282 37 72 40 82 25 87 -21 6 -233 56 -239 56 -2 0 -4 -5
-4 -11 0 -20 -81 -126 -118 -156 -94 -74 -176 -103 -293 -103 -188 0 -342 101
-427 279 -32 66 -36 84 -40 176 -4 86 -1 115 17 173 41 136 156 264 281 314
45 19 75 23 170 23 109 0 119 -2 183 -32 79 -38 174 -123 208 -188 13 -25 28
-45 34 -45 5 0 61 12 123 27 76 19 112 32 112 41 0 23 -57 123 -105 185 -83
105 -242 207 -375 241 -76 19 -202 26 -278 16z"/>
<path d="M18640 2351 c-164 -23 -301 -91 -421 -211 -71 -71 -93 -101 -132
-180 -63 -127 -80 -200 -80 -335 0 -132 23 -229 85 -349 60 -116 191 -245 308
-304 121 -60 192 -76 335 -76 174 0 302 40 455 144 86 58 214 212 193 230 -5
4 -56 19 -115 35 l-107 27 -55 -49 c-67 -61 -123 -95 -201 -121 -180 -61 -383
-21 -506 99 -52 51 -112 162 -125 232 l-6 37 590 0 589 0 7 46 c18 137 -53
362 -159 502 -87 115 -246 221 -385 256 -73 18 -201 26 -270 17z m242 -260
c72 -25 114 -51 176 -113 53 -52 105 -143 117 -205 l7 -33 -456 0 -456 0 6 28
c13 59 63 150 112 203 119 131 321 180 494 120z"/>
<path d="M11150 1620 l0 -710 135 0 135 0 0 710 0 710 -135 0 -135 0 0 -710z"/>
</g>
</svg>
