<?xml version="1.0" standalone="no"?>
<!DOCTYPE svg PUBLIC "-//W3C//DTD SVG 20010904//EN"
 "http://www.w3.org/TR/2001/REC-SVG-20010904/DTD/svg10.dtd">
<svg version="1.0" xmlns="http://www.w3.org/2000/svg"
 width="1920.000000pt" height="1920.000000pt" viewBox="0 0 1920.000000 1920.000000"
 preserveAspectRatio="xMidYMid meet">

<g transform="translate(0.000000,1920.000000) scale(0.100000,-0.100000)"
fill="#000000" stroke="none">
<path d="M9045 19074 c-647 -40 -1217 -129 -1820 -284 -126 -33 -399 -111
-475 -137 -25 -8 -79 -26 -120 -38 -41 -13 -120 -40 -175 -60 -55 -20 -129
-46 -165 -59 -73 -26 -435 -174 -520 -213 -30 -14 -91 -41 -135 -61 -126 -57
-528 -262 -660 -337 -1034 -586 -1923 -1326 -2664 -2220 -752 -907 -1320
-1925 -1697 -3045 -38 -110 -80 -244 -94 -295 -5 -16 -17 -61 -28 -100 -19
-63 -36 -128 -87 -320 -9 -33 -32 -132 -51 -220 -159 -727 -225 -1339 -225
-2080 0 -887 114 -1729 348 -2560 66 -235 155 -514 220 -685 19 -52 51 -138
71 -190 19 -52 38 -99 42 -105 4 -5 15 -32 25 -60 10 -27 33 -83 51 -123 19
-41 34 -76 34 -78 0 -3 20 -48 45 -101 25 -52 45 -97 45 -100 0 -6 191 -388
235 -468 583 -1073 1312 -1975 2220 -2750 1157 -987 2572 -1696 4040 -2023
470 -105 861 -165 1380 -209 156 -13 315 -17 720 -17 513 0 705 8 1015 45 210
24 259 30 315 39 33 5 107 16 165 25 562 86 1195 250 1769 460 140 51 436 169
536 215 22 10 87 39 145 65 157 71 497 243 671 341 792 446 1448 942 2084
1579 509 508 924 1024 1300 1614 87 137 255 418 255 427 0 3 10 21 23 42 83
131 304 577 412 827 26 61 53 124 61 140 40 89 170 435 227 605 192 569 303
1034 407 1700 15 95 47 380 67 602 22 247 26 1206 5 1438 -83 924 -216 1578
-479 2360 -60 180 -224 604 -288 745 -15 33 -41 92 -58 130 -58 131 -219 449
-315 625 -479 879 -1117 1701 -1837 2369 -598 555 -1151 960 -1850 1356 -122
69 -578 302 -670 342 -27 12 -95 42 -150 66 -802 355 -1686 602 -2560 716
-272 35 -382 46 -715 66 -281 17 -815 17 -1095 -1z m85 -4179 c16 -8 40 -30
54 -48 l26 -34 0 -2574 0 -2574 2513 2513 c2112 2112 2518 2514 2550 2523 53
14 108 -3 146 -46 l31 -36 0 -5005 c0 -4646 -1 -5008 -17 -5034 -34 -59 -124
-86 -181 -56 -15 8 -1155 1143 -2534 2523 l-2508 2508 0 -2577 0 -2578 -36
-39 c-46 -52 -73 -55 -290 -42 -618 39 -1210 179 -1764 418 -978 422 -1812
1134 -2381 2033 -130 205 -156 251 -250 435 -216 427 -377 888 -469 1343 -56
280 -83 501 -101 835 -26 470 35 1069 157 1537 61 230 148 500 204 625 9 22
21 51 25 65 4 14 21 53 36 88 16 34 29 65 29 68 0 14 155 319 228 449 456 807
1101 1466 1912 1955 203 123 554 294 790 385 280 109 682 223 926 264 33 5 97
16 144 24 117 21 248 36 425 51 214 19 300 19 335 1z"/>
</g>
</svg>
